<?xml version="1.0" encoding="utf-8"?>
<!-- Generator: Adobe Illustrator 21.0.2, SVG Export Plug-In . SVG Version: 6.00 Build 0)  -->
<svg version="1.1" id="Layer_1" xmlns="http://www.w3.org/2000/svg" xmlns:xlink="http://www.w3.org/1999/xlink" x="0px" y="0px"
	 viewBox="0 0 378.1 134.4" style="enable-background:new 0 0 378.1 134.4;" xml:space="preserve">
<style type="text/css">
	.st0{fill:#FFD100;}
</style>
<polygon class="st0" points="353.7,134.4 0,134.4 4.1,115.2 357.7,115.2 "/>
<path d="M268.9,82.4c-3.2-3.4-1.3-10.2,0.4-17.8l5.5-25.9h22.7l4.1-19.3h-22.7l4-19.3h-21.4l-14,66.3c-2.1,9.9-2.9,17.7,1.4,26
	c4,7.8,17.7,15.2,35,10.5l3.8-17.9C275.9,86.3,271.2,84.8,268.9,82.4z"/>
<polygon points="87.7,0 77.5,47.9 40,47.9 50.1,0 28.6,0 6.7,102.8 28.3,102.8 35.8,67.2 73.4,67.2 65.8,102.8 87.2,102.8 109.1,0 
	"/>
<path d="M211,26.5c-7.5,6.3-11.7,14.4-14.5,27.4l-10.4,48.9h21.4l8.6-40.6c2-9.5,3.6-15.4,7.2-19.1c4.9-5,12-5.3,20.5-4.6l4.1-19.3
	C232.9,15.5,219.8,19.2,211,26.5z"/>
<polygon points="378.1,19.3 311.3,19.3 307.2,38.6 345.9,38.6 297.4,84.2 293.5,102.8 360.3,102.8 364.4,83.5 325.5,83.5 
	374.2,37.7 "/>
<path d="M152.5,17.8c-7.2,0-17.1,2.2-26.8,9.9c-21.9,17.2-32.8,76.7,14.3,76.7c12.2,0,25.8-3.9,35.2-11L166.6,79
	c-7.1,5.5-43,17.4-39.2-11.7h56.1c0-0.1,7.1-23.3-3.1-37.4C171.6,18,155.5,17.8,152.5,17.8z M166.5,49.6h-34.3
	c1.2-4.6,8.5-16,22-14.8C168.7,36.2,166.5,49.6,166.5,49.6z"/>
</svg>
